<?xml version="1.0" encoding="UTF-8"?><svg id="Capa_1" xmlns="http://www.w3.org/2000/svg" xmlns:xlink="http://www.w3.org/1999/xlink" viewBox="0 0 319.86 181.51"><defs><style>.cls-1{fill:url(#Degradado_sin_nombre_31);}</style><radialGradient id="Degradado_sin_nombre_31" cx="159.93" cy="90.75" fx="159.93" fy="90.75" r="130.03" gradientUnits="userSpaceOnUse"><stop offset="0" stop-color="#f78c51"/><stop offset=".11" stop-color="#f08a56"/><stop offset=".26" stop-color="#dd8666"/><stop offset=".45" stop-color="#bf8080"/><stop offset=".65" stop-color="#9578a5"/><stop offset=".86" stop-color="#5f6dd3"/><stop offset="1" stop-color="#3a66f4"/></radialGradient></defs><path class="cls-1" d="m292.97,72.54l-17.66,25.53-8.28-25.53h-28.21l18.17,52.08-4.91,26.95-17.05-79.01h-27.32l-22.59,40.76c.26-1.1.49-2.21.7-3.36,2.19-12.62.24-22.01-5.87-28.18-6.11-6.16-15.85-9.24-29.23-9.24h-47l-2.26,12.79c-.58-1.58-1.3-3.09-2.18-4.5-3.61-5.81-9.37-9.64-17.29-11.49l.1-.38c8.04-2.68,14.33-6.89,18.86-12.64,4.53-5.75,7.5-12.61,8.91-20.59,1.72-9.45-.56-17.76-6.85-24.95C96.73,3.59,85.44,0,69.16,0s-28.17,3.94-37.78,11.83c-9.61,7.89-15.43,17.51-17.48,28.87l-.29,1.53h33.04l.29-1.72c.96-5.23,2.81-9.22,5.55-11.97,2.74-2.74,6.58-4.12,11.49-4.12s8.17,1.37,9.96,4.12c1.79,2.75,2.2,6.74,1.25,11.97-.96,5.68-3.16,10.07-6.61,13.17-3.45,3.1-8.04,4.64-13.79,4.64h-12.16l-4.12,23.37h12.93c7.02,0,11.92,1.6,14.7,4.79,2.78,3.19,3.59,7.98,2.44,14.36-1.21,6.77-3.51,11.78-6.89,15.03-3.38,3.26-7.98,4.88-13.79,4.88s-9.91-1.58-12.11-4.74-2.82-7.52-1.87-13.07l.48-2.3H1.27l-.48,2.49c-2.17,12.51.14,22.63,6.94,30.36,6.8,7.72,18.56,11.59,35.29,11.59s30.47-3.83,40.65-11.49c4.6-3.46,8.4-7.49,11.4-12.06l-10.59,59.97h31.51l5.99-33.9h15.42c13.47,0,24.35-3.13,32.63-9.39.83-.63,1.63-1.3,2.4-2l-9.2,16.61h25.68l7.1-13.25h24.69l2.5,13.25h55.74l5.28-28.99,35.62-51.29h-26.89Zm-138.66,37.49c-.95,5.49-2.63,9.39-5.05,11.71-2.42,2.32-6.42,3.48-12.01,3.48h-11.3l5.24-30.08h11.3c5.59,0,9.19,1.14,10.81,3.41,1.62,2.27,1.96,6.1,1.01,11.49Zm50.59,8.84l9.58-18.25,3.16,18.25h-12.75Z"/></svg>